<svg width="56" height="56" viewBox="0 0 56 56" fill="none" xmlns="http://www.w3.org/2000/svg">
<path d="M42.9687 26.6138L29.3853 13.0312C28.6035 12.2489 27.3348 12.2489 26.552 13.0312L23.7313 15.8518L27.3095 19.43C28.141 19.149 29.0945 19.3375 29.7573 20.0003C30.4233 20.6674 30.6104 21.629 30.3227 22.4632L33.771 25.9116C34.6053 25.6242 35.5679 25.8102 36.2342 26.4776C37.1655 27.4085 37.1655 28.9173 36.2342 29.8488C35.3027 30.7804 33.794 30.7804 32.862 29.8488C32.1615 29.1476 31.9884 28.1188 32.3431 27.2559L29.1272 24.04L29.1268 32.5028C29.3599 32.6181 29.5729 32.7704 29.7573 32.9537C30.6886 33.8846 30.6886 35.3935 29.7573 36.3257C28.8258 37.2569 27.3163 37.2569 26.3861 36.3257C25.4549 35.3935 25.4549 33.8847 26.3861 32.9538C26.6093 32.7305 26.8745 32.5537 27.1665 32.4336V23.8919C26.8741 23.7725 26.6087 23.5956 26.3861 23.3716C25.6805 22.667 25.5109 21.6317 25.8724 20.7653L22.3452 17.2377L13.0313 26.551C12.2487 27.334 12.2487 28.6029 13.0313 29.3853L26.615 42.9682C27.397 43.7506 28.6655 43.7506 29.4485 42.9682L42.9686 29.4484C43.751 28.6657 43.751 27.3961 42.9686 26.6138" fill="#EF4444"/>
</svg>
