<svg width="56" height="56" viewBox="0 0 56 56" fill="none" xmlns="http://www.w3.org/2000/svg">
<path d="M28.0002 30.7429C29.515 30.7429 30.743 29.5149 30.743 28C30.743 26.4852 29.515 25.2572 28.0002 25.2572C26.4853 25.2572 25.2573 26.4852 25.2573 28C25.2573 29.5149 26.4853 30.7429 28.0002 30.7429Z" fill="#61DAFB"/>
<path fill-rule="evenodd" clip-rule="evenodd" d="M15.1091 26.5549C14.488 27.1156 14.2825 27.6056 14.2825 27.9999C14.2825 28.3943 14.488 28.8843 15.1091 29.445C15.7302 30.0056 16.6849 30.5563 17.9499 31.0393C20.4728 32.0026 24.0259 32.6194 28.0001 32.6194C31.9743 32.6194 35.5273 32.0026 38.0503 31.0393C39.3152 30.5563 40.27 30.0056 40.891 29.445C41.5122 28.8843 41.7177 28.3943 41.7177 27.9999C41.7177 27.6056 41.5122 27.1156 40.891 26.5549C40.27 25.9943 39.3152 25.4436 38.0503 24.9606C35.5273 23.9973 31.9743 23.3805 28.0001 23.3805C24.0259 23.3805 20.4728 23.9973 17.9499 24.9606C16.6849 25.4436 15.7302 25.9943 15.1091 26.5549ZM17.2365 23.0922C20.0402 22.0217 23.846 21.3805 28.0001 21.3805C32.1542 21.3805 35.96 22.0217 38.7637 23.0922C40.1621 23.6261 41.3627 24.2863 42.2312 25.0703C43.0996 25.8542 43.7177 26.8425 43.7177 27.9999C43.7177 29.1574 43.0996 30.1457 42.2312 30.9296C41.3627 31.7136 40.1621 32.3738 38.7637 32.9077C35.96 33.9782 32.1542 34.6194 28.0001 34.6194C23.846 34.6194 20.0402 33.9782 17.2365 32.9077C15.838 32.3738 14.6375 31.7136 13.769 30.9296C12.9006 30.1457 12.2825 29.1574 12.2825 27.9999C12.2825 26.8425 12.9006 25.8542 13.769 25.0703C14.6375 24.2863 15.838 23.6261 17.2365 23.0922Z" fill="#61DAFB"/>
<path fill-rule="evenodd" clip-rule="evenodd" d="M22.806 16.1135C22.0098 15.856 21.4827 15.923 21.1412 16.1201C20.7997 16.3173 20.4781 16.7403 20.303 17.5586C20.1281 18.3767 20.1285 19.4789 20.3427 20.8159C20.77 23.4825 22.0123 26.8679 23.9994 30.3097C25.9865 33.7515 28.2972 36.5201 30.3929 38.2234C31.4437 39.0773 32.398 39.6289 33.194 39.8864C33.9901 40.1439 34.5173 40.0769 34.8588 39.8798C35.2003 39.6826 35.5219 39.2596 35.6969 38.4413C35.8719 37.6232 35.8714 36.521 35.6572 35.184C35.23 32.5174 33.9877 29.132 32.0005 25.6902C30.0134 22.2484 27.7028 19.4798 25.607 17.7765C24.5563 16.9226 23.602 16.371 22.806 16.1135ZM26.8684 16.2245C29.1974 18.1173 31.6555 21.0927 33.7326 24.6902C35.8096 28.2878 37.1573 31.9043 37.632 34.8676C37.8688 36.3457 37.8974 37.7155 37.6527 38.8596C37.408 40.0036 36.8611 41.0331 35.8588 41.6118C34.8564 42.1905 33.6915 42.1494 32.5784 41.7893C31.4652 41.4291 30.2932 40.7195 29.1315 39.7754C26.8026 37.8826 24.3444 34.9072 22.2674 31.3097C20.1903 27.7121 18.8427 24.0956 18.3679 21.1323C18.1311 19.6542 18.1026 18.2844 18.3473 17.1403C18.592 15.9963 19.1388 14.9668 20.1412 14.3881C21.1435 13.8094 22.3085 13.8505 23.4216 14.2106C24.5348 14.5708 25.7068 15.2804 26.8684 16.2245Z" fill="#61DAFB"/>
<path fill-rule="evenodd" clip-rule="evenodd" d="M35.6971 17.5586C35.522 16.7404 35.2005 16.3174 34.8589 16.1202C34.5174 15.923 33.9903 15.856 33.1942 16.1136C32.3981 16.3711 31.4438 16.9226 30.3931 17.7766C28.2974 19.4799 25.9867 22.2485 23.9996 25.6903C22.0125 29.1321 20.7701 32.5175 20.3429 35.1841C20.1287 36.521 20.1282 37.6232 20.3032 38.4414C20.4782 39.2596 20.7998 39.6826 21.1413 39.8798C21.4828 40.077 22.01 40.144 22.8061 39.8864C23.6021 39.6289 24.5564 39.0774 25.6072 38.2234C27.7029 36.5201 30.0136 33.7515 32.0007 30.3097C33.9878 26.8679 35.2302 23.4825 35.6574 20.8159C35.8716 19.479 35.8721 18.3768 35.6971 17.5586ZM37.6322 21.1323C37.1574 24.0957 35.8098 27.7122 33.7327 31.3097C31.6557 34.9073 29.1975 37.8826 26.8686 39.7755C25.7069 40.7196 24.5349 41.4292 23.4217 41.7893C22.3086 42.1494 21.1437 42.1906 20.1413 41.6119C19.139 41.0331 18.5921 40.0037 18.3474 38.8597C18.1027 37.7156 18.1313 36.3457 18.3681 34.8677C18.8428 31.9043 20.1905 28.2878 22.2675 24.6903C24.3446 21.0927 26.8027 18.1174 29.1317 16.2245C30.2933 15.2804 31.4653 14.5708 32.5785 14.2107C33.6916 13.8506 34.8566 13.8094 35.8589 14.3881C36.8613 14.9669 37.4081 15.9963 37.6528 17.1403C37.8975 18.2844 37.869 19.6543 37.6322 21.1323Z" fill="#61DAFB"/>
</svg>
