<svg width="56" height="56" viewBox="0 0 56 56" fill="none" xmlns="http://www.w3.org/2000/svg">
<path d="M34.0012 33.8596C35.1493 33.7407 36.0203 32.751 35.9806 31.5632C35.9411 30.3755 34.9513 29.4253 33.7636 29.4253H33.6845C32.4571 29.4649 31.507 30.4942 31.5466 31.7215C31.5862 32.3154 31.8237 32.8301 32.18 33.1864C30.8339 35.8391 28.7753 37.7791 25.6872 39.4023C23.5889 40.5109 21.4115 40.9068 19.2341 40.6298C17.4525 40.3922 16.0668 39.6004 15.1957 38.2938C13.9289 36.3538 13.8102 34.2554 14.8791 32.1571C15.6314 30.6526 16.819 29.544 17.5712 28.9897C17.4129 28.475 17.1753 27.6041 17.0566 26.9706C11.3159 31.1277 11.9099 36.7497 13.6518 39.4023C14.9583 41.382 17.6109 42.6093 20.5405 42.6093C21.3323 42.6093 22.124 42.5301 22.9159 42.3322C27.9835 41.3424 31.8238 38.3334 34.0012 33.8596V33.8596ZM40.9691 28.9502C37.9602 25.4265 33.5261 23.4866 28.4586 23.4866H27.8251C27.4688 22.7739 26.7166 22.2988 25.8852 22.2988H25.806C24.5788 22.3384 23.6287 23.3677 23.6682 24.5951C23.7078 25.7828 24.6975 26.7331 25.8852 26.7331H25.9643C26.8353 26.6934 27.5876 26.1392 27.9043 25.3869H28.6169C31.6258 25.3869 34.4763 26.2579 37.0497 27.9604C39.0292 29.2669 40.4545 30.9694 41.2462 33.0281C41.9192 34.6909 41.8796 36.3142 41.167 37.7C40.0585 39.7983 38.1978 40.9465 35.7432 40.9465C34.1595 40.9465 32.6552 40.4713 31.8633 40.115C31.4278 40.5109 30.636 41.1443 30.0817 41.5404C31.7842 42.3321 33.5261 42.7677 35.1889 42.7677C38.9896 42.7677 41.8005 40.6693 42.8695 38.571C44.0175 36.2746 43.9383 32.3154 40.9691 28.9502V28.9502ZM20.8572 34.5325C20.8968 35.7203 21.8866 36.6704 23.0743 36.6704H23.1535C24.3808 36.6309 25.3309 35.6014 25.2913 34.3741C25.2518 33.1863 24.262 32.2362 23.0743 32.2362H22.9951C22.9159 32.2362 22.7971 32.2362 22.7181 32.2757C21.0948 29.5835 20.4218 26.6538 20.6594 23.4864C20.8176 21.1109 21.6095 19.0521 22.9951 17.3497C24.1432 15.8848 26.3603 15.1721 27.8648 15.1326C32.0612 15.0534 33.8427 20.2795 33.9616 22.3779C34.4763 22.4966 35.3472 22.7738 35.9411 22.9718C35.466 16.558 31.507 13.2323 27.7064 13.2323C24.1432 13.2323 20.8572 15.8058 19.5507 19.6066C17.7296 24.6743 18.9173 29.544 21.1343 33.3844C20.9365 33.6615 20.8176 34.097 20.8572 34.5326V34.5325Z" fill="#8B5CF6"/>
</svg>
